<svg width="25" height="24" viewBox="0 0 25 24" fill="none" xmlns="http://www.w3.org/2000/svg">
<g clip-path="url(#clip0_5_182)">
<path d="M6.5 23C5.66667 23 4.95833 22.7083 4.375 22.125C3.79167 21.5417 3.5 20.8333 3.5 20C3.5 19.1667 3.79167 18.4583 4.375 17.875C4.95833 17.2917 5.66667 17 6.5 17C6.73333 17 6.95 17.025 7.15 17.075C7.35 17.125 7.54167 17.1917 7.725 17.275L9.15 15.5C8.68333 14.9833 8.35833 14.4 8.175 13.75C7.99167 13.1 7.95 12.45 8.05 11.8L6.025 11.125C5.74167 11.5417 5.38333 11.875 4.95 12.125C4.51667 12.375 4.03333 12.5 3.5 12.5C2.66667 12.5 1.95833 12.2083 1.375 11.625C0.791667 11.0417 0.5 10.3333 0.5 9.5C0.5 8.66667 0.791667 7.95833 1.375 7.375C1.95833 6.79167 2.66667 6.5 3.5 6.5C4.33333 6.5 5.04167 6.79167 5.625 7.375C6.20833 7.95833 6.5 8.66667 6.5 9.5V9.7L8.525 10.4C8.85833 9.8 9.30417 9.29167 9.8625 8.875C10.4208 8.45833 11.05 8.19167 11.75 8.075V5.9C11.1 5.71667 10.5625 5.3625 10.1375 4.8375C9.7125 4.3125 9.5 3.7 9.5 3C9.5 2.16667 9.79167 1.45833 10.375 0.875C10.9583 0.291667 11.6667 0 12.5 0C13.3333 0 14.0417 0.291667 14.625 0.875C15.2083 1.45833 15.5 2.16667 15.5 3C15.5 3.7 15.2833 4.3125 14.85 4.8375C14.4167 5.3625 13.8833 5.71667 13.25 5.9V8.075C13.95 8.19167 14.5792 8.45833 15.1375 8.875C15.6958 9.29167 16.1417 9.8 16.475 10.4L18.5 9.7V9.5C18.5 8.66667 18.7917 7.95833 19.375 7.375C19.9583 6.79167 20.6667 6.5 21.5 6.5C22.3333 6.5 23.0417 6.79167 23.625 7.375C24.2083 7.95833 24.5 8.66667 24.5 9.5C24.5 10.3333 24.2083 11.0417 23.625 11.625C23.0417 12.2083 22.3333 12.5 21.5 12.5C20.9667 12.5 20.4792 12.375 20.0375 12.125C19.5958 11.875 19.2417 11.5417 18.975 11.125L16.95 11.8C17.05 12.45 17.0083 13.0958 16.825 13.7375C16.6417 14.3792 16.3167 14.9667 15.85 15.5L17.275 17.25C17.4583 17.1667 17.65 17.1042 17.85 17.0625C18.05 17.0208 18.2667 17 18.5 17C19.3333 17 20.0417 17.2917 20.625 17.875C21.2083 18.4583 21.5 19.1667 21.5 20C21.5 20.8333 21.2083 21.5417 20.625 22.125C20.0417 22.7083 19.3333 23 18.5 23C17.6667 23 16.9583 22.7083 16.375 22.125C15.7917 21.5417 15.5 20.8333 15.5 20C15.5 19.6667 15.5542 19.3458 15.6625 19.0375C15.7708 18.7292 15.9167 18.45 16.1 18.2L14.675 16.425C13.9917 16.8083 13.2625 17 12.4875 17C11.7125 17 10.9833 16.8083 10.3 16.425L8.9 18.2C9.08333 18.45 9.22917 18.7292 9.3375 19.0375C9.44583 19.3458 9.5 19.6667 9.5 20C9.5 20.8333 9.20833 21.5417 8.625 22.125C8.04167 22.7083 7.33333 23 6.5 23ZM3.5 10.5C3.78333 10.5 4.02083 10.4042 4.2125 10.2125C4.40417 10.0208 4.5 9.78333 4.5 9.5C4.5 9.21667 4.40417 8.97917 4.2125 8.7875C4.02083 8.59583 3.78333 8.5 3.5 8.5C3.21667 8.5 2.97917 8.59583 2.7875 8.7875C2.59583 8.97917 2.5 9.21667 2.5 9.5C2.5 9.78333 2.59583 10.0208 2.7875 10.2125C2.97917 10.4042 3.21667 10.5 3.5 10.5ZM6.5 21C6.78333 21 7.02083 20.9042 7.2125 20.7125C7.40417 20.5208 7.5 20.2833 7.5 20C7.5 19.7167 7.40417 19.4792 7.2125 19.2875C7.02083 19.0958 6.78333 19 6.5 19C6.21667 19 5.97917 19.0958 5.7875 19.2875C5.59583 19.4792 5.5 19.7167 5.5 20C5.5 20.2833 5.59583 20.5208 5.7875 20.7125C5.97917 20.9042 6.21667 21 6.5 21ZM12.5 4C12.7833 4 13.0208 3.90417 13.2125 3.7125C13.4042 3.52083 13.5 3.28333 13.5 3C13.5 2.71667 13.4042 2.47917 13.2125 2.2875C13.0208 2.09583 12.7833 2 12.5 2C12.2167 2 11.9792 2.09583 11.7875 2.2875C11.5958 2.47917 11.5 2.71667 11.5 3C11.5 3.28333 11.5958 3.52083 11.7875 3.7125C11.9792 3.90417 12.2167 4 12.5 4ZM12.5 15C13.2 15 13.7917 14.7583 14.275 14.275C14.7583 13.7917 15 13.2 15 12.5C15 11.8 14.7583 11.2083 14.275 10.725C13.7917 10.2417 13.2 10 12.5 10C11.8 10 11.2083 10.2417 10.725 10.725C10.2417 11.2083 10 11.8 10 12.5C10 13.2 10.2417 13.7917 10.725 14.275C11.2083 14.7583 11.8 15 12.5 15ZM18.5 21C18.7833 21 19.0208 20.9042 19.2125 20.7125C19.4042 20.5208 19.5 20.2833 19.5 20C19.5 19.7167 19.4042 19.4792 19.2125 19.2875C19.0208 19.0958 18.7833 19 18.5 19C18.2167 19 17.9792 19.0958 17.7875 19.2875C17.5958 19.4792 17.5 19.7167 17.5 20C17.5 20.2833 17.5958 20.5208 17.7875 20.7125C17.9792 20.9042 18.2167 21 18.5 21ZM21.5 10.5C21.7833 10.5 22.0208 10.4042 22.2125 10.2125C22.4042 10.0208 22.5 9.78333 22.5 9.5C22.5 9.21667 22.4042 8.97917 22.2125 8.7875C22.0208 8.59583 21.7833 8.5 21.5 8.5C21.2167 8.5 20.9792 8.59583 20.7875 8.7875C20.5958 8.97917 20.5 9.21667 20.5 9.5C20.5 9.78333 20.5958 10.0208 20.7875 10.2125C20.9792 10.4042 21.2167 10.5 21.5 10.5Z" fill="white"/>
</g>
<defs>
<clipPath id="clip0_5_182">
<rect width="24" height="24" fill="white" transform="translate(0.5)"/>
</clipPath>
</defs>
</svg>
