<svg xmlns="http://www.w3.org/2000/svg" xmlns:xlink="http://www.w3.org/1999/xlink" width="70" zoomAndPan="magnify" viewBox="0 0 52.5 36.75" height="49" preserveAspectRatio="xMidYMid meet" version="1.0"><defs><clipPath id="5c1c4ba4c6"><path d="M 0 0.0507812 L 52.003906 0.0507812 L 52.003906 13 L 0 13 Z M 0 0.0507812 " clip-rule="nonzero"/></clipPath><clipPath id="b493728ad9"><path d="M 0 12 L 52.003906 12 L 52.003906 25 L 0 25 Z M 0 12 " clip-rule="nonzero"/></clipPath><clipPath id="adec51f0f3"><path d="M 0 24 L 52.003906 24 L 52.003906 36.453125 L 0 36.453125 Z M 0 24 " clip-rule="nonzero"/></clipPath></defs><g clip-path="url(#5c1c4ba4c6)"><path fill="#ff9932" d="M -1.300781 0.0507812 L 53.582031 0.0507812 L 53.582031 12.183594 L -1.300781 12.183594 Z M -1.300781 0.0507812 " fill-opacity="1" fill-rule="nonzero"/></g><g clip-path="url(#b493728ad9)"><path fill="#ffffff" d="M -1.300781 12.183594 L 53.582031 12.183594 L 53.582031 24.320312 L -1.300781 24.320312 Z M -1.300781 12.183594 " fill-opacity="1" fill-rule="nonzero"/></g><g clip-path="url(#adec51f0f3)"><path fill="#128807" d="M -1.300781 24.320312 L 53.582031 24.320312 L 53.582031 36.453125 L -1.300781 36.453125 Z M -1.300781 24.320312 " fill-opacity="1" fill-rule="nonzero"/></g><path fill="#000080" d="M 31.8125 18.25 C 31.8125 18.621094 31.777344 18.988281 31.703125 19.351562 C 31.632812 19.714844 31.523438 20.066406 31.382812 20.410156 C 31.238281 20.753906 31.066406 21.078125 30.859375 21.386719 C 30.652344 21.695312 30.414062 21.980469 30.152344 22.242188 C 29.890625 22.503906 29.601562 22.738281 29.292969 22.941406 C 28.984375 23.148438 28.65625 23.324219 28.3125 23.464844 C 27.96875 23.605469 27.613281 23.714844 27.25 23.785156 C 26.882812 23.859375 26.515625 23.894531 26.140625 23.894531 C 25.769531 23.894531 25.402344 23.859375 25.035156 23.785156 C 24.671875 23.714844 24.316406 23.605469 23.972656 23.464844 C 23.628906 23.324219 23.300781 23.148438 22.992188 22.941406 C 22.683594 22.738281 22.394531 22.503906 22.132812 22.242188 C 21.867188 21.980469 21.632812 21.695312 21.425781 21.386719 C 21.21875 21.078125 21.046875 20.753906 20.902344 20.410156 C 20.761719 20.066406 20.652344 19.714844 20.578125 19.351562 C 20.507812 18.988281 20.472656 18.621094 20.472656 18.25 C 20.472656 17.878906 20.507812 17.515625 20.578125 17.148438 C 20.652344 16.785156 20.761719 16.433594 20.902344 16.09375 C 21.046875 15.75 21.21875 15.425781 21.425781 15.117188 C 21.632812 14.808594 21.867188 14.523438 22.132812 14.261719 C 22.394531 14 22.683594 13.765625 22.992188 13.558594 C 23.300781 13.355469 23.628906 13.179688 23.972656 13.039062 C 24.316406 12.894531 24.671875 12.789062 25.035156 12.71875 C 25.402344 12.644531 25.769531 12.609375 26.140625 12.609375 C 26.515625 12.609375 26.882812 12.644531 27.25 12.71875 C 27.613281 12.789062 27.96875 12.894531 28.3125 13.039062 C 28.65625 13.179688 28.984375 13.355469 29.292969 13.558594 C 29.601562 13.765625 29.890625 14 30.152344 14.261719 C 30.414062 14.523438 30.652344 14.808594 30.859375 15.117188 C 31.066406 15.425781 31.238281 15.75 31.382812 16.09375 C 31.523438 16.433594 31.632812 16.785156 31.703125 17.148438 C 31.777344 17.515625 31.8125 17.878906 31.8125 18.25 Z M 31.8125 18.25 " fill-opacity="1" fill-rule="nonzero"/><path fill="#ffffff" d="M 31.144531 18.25 C 31.144531 18.578125 31.109375 18.902344 31.046875 19.222656 C 30.984375 19.542969 30.886719 19.851562 30.761719 20.15625 C 30.636719 20.457031 30.480469 20.742188 30.300781 21.015625 C 30.117188 21.285156 29.910156 21.539062 29.679688 21.769531 C 29.445312 22 29.191406 22.207031 28.921875 22.386719 C 28.648438 22.570312 28.359375 22.722656 28.054688 22.847656 C 27.753906 22.972656 27.441406 23.066406 27.117188 23.128906 C 26.796875 23.195312 26.46875 23.226562 26.140625 23.226562 C 25.8125 23.226562 25.488281 23.195312 25.167969 23.128906 C 24.84375 23.066406 24.53125 22.972656 24.230469 22.847656 C 23.925781 22.722656 23.636719 22.570312 23.363281 22.386719 C 23.089844 22.207031 22.839844 22 22.605469 21.769531 C 22.375 21.539062 22.167969 21.285156 21.984375 21.015625 C 21.800781 20.742188 21.648438 20.457031 21.523438 20.15625 C 21.398438 19.851562 21.300781 19.542969 21.238281 19.222656 C 21.171875 18.902344 21.140625 18.578125 21.140625 18.25 C 21.140625 17.925781 21.171875 17.601562 21.238281 17.28125 C 21.300781 16.960938 21.398438 16.648438 21.523438 16.347656 C 21.648438 16.046875 21.800781 15.757812 21.984375 15.488281 C 22.167969 15.214844 22.375 14.964844 22.605469 14.734375 C 22.839844 14.503906 23.089844 14.296875 23.363281 14.113281 C 23.636719 13.933594 23.925781 13.78125 24.230469 13.65625 C 24.53125 13.53125 24.84375 13.433594 25.167969 13.371094 C 25.488281 13.308594 25.8125 13.277344 26.140625 13.277344 C 26.46875 13.277344 26.796875 13.308594 27.117188 13.371094 C 27.441406 13.433594 27.753906 13.53125 28.054688 13.65625 C 28.359375 13.78125 28.648438 13.933594 28.921875 14.113281 C 29.191406 14.296875 29.445312 14.503906 29.679688 14.734375 C 29.910156 14.964844 30.117188 15.214844 30.300781 15.488281 C 30.480469 15.757812 30.636719 16.046875 30.761719 16.347656 C 30.886719 16.648438 30.984375 16.960938 31.046875 17.28125 C 31.109375 17.601562 31.144531 17.925781 31.144531 18.25 Z M 31.144531 18.25 " fill-opacity="1" fill-rule="nonzero"/><path fill="#000080" d="M 31.402344 18.941406 C 31.390625 19.023438 31.351562 19.089844 31.285156 19.140625 C 31.21875 19.191406 31.144531 19.210938 31.058594 19.203125 C 30.976562 19.191406 30.910156 19.152344 30.859375 19.085938 C 30.808594 19.019531 30.785156 18.945312 30.796875 18.859375 C 30.808594 18.777344 30.847656 18.710938 30.914062 18.660156 C 30.980469 18.609375 31.054688 18.589844 31.140625 18.601562 C 31.222656 18.609375 31.289062 18.648438 31.339844 18.714844 C 31.394531 18.78125 31.414062 18.855469 31.402344 18.941406 Z M 31.402344 18.941406 " fill-opacity="1" fill-rule="nonzero"/><path fill="#000080" d="M 26.140625 23.226562 L 26.324219 20.3125 C 26.242188 20.070312 26.183594 19.382812 26.140625 18.25 C 26.101562 19.382812 26.039062 20.070312 25.960938 20.3125 Z M 26.140625 23.226562 " fill-opacity="1" fill-rule="nonzero"/><path fill="#000080" d="M 31.042969 20.269531 C 31.011719 20.347656 30.957031 20.402344 30.878906 20.433594 C 30.800781 20.46875 30.722656 20.46875 30.644531 20.433594 C 30.566406 20.402344 30.511719 20.347656 30.480469 20.269531 C 30.449219 20.195312 30.449219 20.117188 30.480469 20.039062 C 30.511719 19.960938 30.566406 19.90625 30.644531 19.875 C 30.722656 19.84375 30.800781 19.84375 30.878906 19.875 C 30.957031 19.90625 31.011719 19.960938 31.042969 20.039062 C 31.074219 20.117188 31.074219 20.195312 31.042969 20.269531 Z M 31.042969 20.269531 " fill-opacity="1" fill-rule="nonzero"/><path fill="#000080" d="M 24.847656 23.058594 L 25.78125 20.289062 C 25.765625 20.035156 25.886719 19.355469 26.140625 18.25 C 25.808594 19.335938 25.570312 19.984375 25.429688 20.195312 Z M 24.847656 23.058594 " fill-opacity="1" fill-rule="nonzero"/><path fill="#000080" d="M 30.351562 21.464844 C 30.300781 21.53125 30.234375 21.570312 30.148438 21.582031 C 30.066406 21.589844 29.992188 21.570312 29.921875 21.519531 C 29.855469 21.46875 29.816406 21.402344 29.808594 21.320312 C 29.796875 21.238281 29.816406 21.160156 29.867188 21.09375 C 29.917969 21.027344 29.984375 20.988281 30.070312 20.980469 C 30.152344 20.96875 30.226562 20.988281 30.292969 21.039062 C 30.363281 21.089844 30.402344 21.15625 30.410156 21.242188 C 30.421875 21.324219 30.402344 21.398438 30.351562 21.464844 Z M 30.351562 21.464844 " fill-opacity="1" fill-rule="nonzero"/><path fill="#000080" d="M 23.640625 22.558594 L 25.265625 20.128906 C 25.316406 19.878906 25.609375 19.253906 26.140625 18.25 C 25.539062 19.210938 25.140625 19.777344 24.945312 19.945312 Z M 23.640625 22.558594 " fill-opacity="1" fill-rule="nonzero"/><path fill="#000080" d="M 29.371094 22.4375 C 29.304688 22.488281 29.230469 22.511719 29.144531 22.5 C 29.0625 22.488281 28.996094 22.449219 28.945312 22.382812 C 28.894531 22.316406 28.871094 22.242188 28.882812 22.160156 C 28.894531 22.074219 28.933594 22.007812 29 21.957031 C 29.066406 21.90625 29.140625 21.886719 29.226562 21.898438 C 29.308594 21.910156 29.375 21.945312 29.429688 22.011719 C 29.480469 22.078125 29.5 22.15625 29.488281 22.238281 C 29.476562 22.320312 29.4375 22.386719 29.371094 22.4375 Z M 29.371094 22.4375 " fill-opacity="1" fill-rule="nonzero"/><path fill="#000080" d="M 22.605469 21.769531 L 24.804688 19.839844 C 24.921875 19.609375 25.367188 19.082031 26.140625 18.25 C 25.308594 19.023438 24.777344 19.464844 24.546875 19.582031 Z M 22.605469 21.769531 " fill-opacity="1" fill-rule="nonzero"/><path fill="#000080" d="M 28.171875 23.128906 C 28.09375 23.160156 28.015625 23.160156 27.9375 23.128906 C 27.859375 23.097656 27.804688 23.042969 27.773438 22.964844 C 27.742188 22.886719 27.742188 22.808594 27.773438 22.730469 C 27.804688 22.652344 27.859375 22.597656 27.9375 22.566406 C 28.015625 22.535156 28.09375 22.535156 28.171875 22.566406 C 28.25 22.597656 28.304688 22.652344 28.335938 22.730469 C 28.371094 22.808594 28.371094 22.886719 28.335938 22.964844 C 28.304688 23.042969 28.25 23.097656 28.171875 23.128906 Z M 28.171875 23.128906 " fill-opacity="1" fill-rule="nonzero"/><path fill="#000080" d="M 21.8125 20.738281 L 24.4375 19.441406 C 24.609375 19.25 25.175781 18.851562 26.140625 18.25 C 25.136719 18.78125 24.507812 19.074219 24.253906 19.125 Z M 21.8125 20.738281 " fill-opacity="1" fill-rule="nonzero"/><path fill="#000080" d="M 26.835938 23.484375 C 26.75 23.496094 26.675781 23.476562 26.609375 23.425781 C 26.542969 23.375 26.503906 23.304688 26.492188 23.222656 C 26.480469 23.140625 26.5 23.066406 26.554688 23 C 26.605469 22.933594 26.671875 22.894531 26.753906 22.882812 C 26.839844 22.871094 26.914062 22.890625 26.980469 22.941406 C 27.046875 22.992188 27.085938 23.0625 27.097656 23.144531 C 27.109375 23.226562 27.089844 23.300781 27.035156 23.367188 C 26.984375 23.433594 26.917969 23.472656 26.835938 23.484375 Z M 26.835938 23.484375 " fill-opacity="1" fill-rule="nonzero"/><path fill="#000080" d="M 21.3125 19.539062 L 24.1875 18.960938 C 24.402344 18.820312 25.054688 18.582031 26.140625 18.25 C 25.03125 18.503906 24.347656 18.625 24.09375 18.609375 Z M 21.3125 19.539062 " fill-opacity="1" fill-rule="nonzero"/><path fill="#000080" d="M 25.449219 23.484375 C 25.367188 23.472656 25.296875 23.433594 25.246094 23.367188 C 25.195312 23.300781 25.175781 23.226562 25.1875 23.144531 C 25.199219 23.0625 25.238281 22.992188 25.304688 22.941406 C 25.371094 22.890625 25.445312 22.871094 25.527344 22.882812 C 25.613281 22.894531 25.679688 22.933594 25.730469 23 C 25.78125 23.066406 25.800781 23.140625 25.792969 23.222656 C 25.78125 23.304688 25.742188 23.375 25.675781 23.425781 C 25.609375 23.476562 25.53125 23.496094 25.449219 23.484375 Z M 25.449219 23.484375 " fill-opacity="1" fill-rule="nonzero"/><path fill="#000080" d="M 21.140625 18.25 L 24.070312 18.433594 C 24.3125 18.351562 25.003906 18.292969 26.140625 18.25 C 25.003906 18.210938 24.3125 18.148438 24.070312 18.070312 Z M 21.140625 18.25 " fill-opacity="1" fill-rule="nonzero"/><path fill="#000080" d="M 24.113281 23.128906 C 24.035156 23.097656 23.980469 23.042969 23.945312 22.964844 C 23.914062 22.886719 23.914062 22.808594 23.945312 22.730469 C 23.980469 22.652344 24.035156 22.597656 24.113281 22.566406 C 24.191406 22.535156 24.265625 22.535156 24.34375 22.566406 C 24.421875 22.597656 24.476562 22.652344 24.511719 22.730469 C 24.542969 22.808594 24.542969 22.886719 24.511719 22.964844 C 24.476562 23.042969 24.421875 23.097656 24.34375 23.128906 C 24.265625 23.160156 24.191406 23.160156 24.113281 23.128906 Z M 24.113281 23.128906 " fill-opacity="1" fill-rule="nonzero"/><path fill="#000080" d="M 21.3125 16.964844 L 24.09375 17.894531 C 24.347656 17.878906 25.03125 17.996094 26.140625 18.25 C 25.054688 17.917969 24.402344 17.683594 24.1875 17.542969 Z M 21.3125 16.964844 " fill-opacity="1" fill-rule="nonzero"/><path fill="#000080" d="M 22.914062 22.4375 C 22.84375 22.386719 22.808594 22.320312 22.796875 22.238281 C 22.785156 22.15625 22.804688 22.078125 22.855469 22.011719 C 22.90625 21.945312 22.976562 21.910156 23.058594 21.898438 C 23.140625 21.886719 23.21875 21.90625 23.285156 21.957031 C 23.351562 22.007812 23.390625 22.074219 23.398438 22.160156 C 23.410156 22.242188 23.390625 22.316406 23.339844 22.382812 C 23.289062 22.449219 23.222656 22.488281 23.136719 22.5 C 23.054688 22.511719 22.980469 22.488281 22.914062 22.4375 Z M 22.914062 22.4375 " fill-opacity="1" fill-rule="nonzero"/><path fill="#000080" d="M 21.8125 15.761719 L 24.253906 17.378906 C 24.507812 17.429688 25.136719 17.71875 26.140625 18.25 C 25.175781 17.648438 24.609375 17.253906 24.4375 17.0625 Z M 21.8125 15.761719 " fill-opacity="1" fill-rule="nonzero"/><path fill="#000080" d="M 21.933594 21.464844 C 21.882812 21.398438 21.863281 21.324219 21.871094 21.242188 C 21.882812 21.15625 21.921875 21.089844 21.988281 21.039062 C 22.054688 20.988281 22.132812 20.96875 22.214844 20.980469 C 22.296875 20.988281 22.367188 21.027344 22.417969 21.09375 C 22.46875 21.160156 22.488281 21.238281 22.476562 21.320312 C 22.464844 21.402344 22.425781 21.46875 22.359375 21.519531 C 22.292969 21.570312 22.21875 21.589844 22.136719 21.582031 C 22.050781 21.570312 21.984375 21.53125 21.933594 21.464844 Z M 21.933594 21.464844 " fill-opacity="1" fill-rule="nonzero"/><path fill="#000080" d="M 22.605469 14.734375 L 24.546875 16.921875 C 24.777344 17.035156 25.308594 17.480469 26.140625 18.25 C 25.367188 17.421875 24.921875 16.894531 24.804688 16.664062 Z M 22.605469 14.734375 " fill-opacity="1" fill-rule="nonzero"/><path fill="#000080" d="M 21.242188 20.269531 C 21.207031 20.195312 21.207031 20.117188 21.242188 20.039062 C 21.273438 19.960938 21.328125 19.90625 21.40625 19.875 C 21.484375 19.84375 21.5625 19.84375 21.640625 19.875 C 21.714844 19.90625 21.773438 19.960938 21.804688 20.039062 C 21.835938 20.117188 21.835938 20.195312 21.804688 20.269531 C 21.773438 20.347656 21.714844 20.402344 21.640625 20.433594 C 21.5625 20.46875 21.484375 20.46875 21.40625 20.433594 C 21.328125 20.402344 21.273438 20.347656 21.242188 20.269531 Z M 21.242188 20.269531 " fill-opacity="1" fill-rule="nonzero"/><path fill="#000080" d="M 23.640625 13.941406 L 24.945312 16.554688 C 25.140625 16.726562 25.539062 17.289062 26.140625 18.25 C 25.609375 17.25 25.316406 16.625 25.265625 16.375 Z M 23.640625 13.941406 " fill-opacity="1" fill-rule="nonzero"/><path fill="#000080" d="M 20.882812 18.941406 C 20.871094 18.855469 20.890625 18.78125 20.941406 18.714844 C 20.992188 18.648438 21.0625 18.609375 21.144531 18.601562 C 21.226562 18.589844 21.304688 18.609375 21.371094 18.660156 C 21.4375 18.710938 21.476562 18.777344 21.488281 18.859375 C 21.496094 18.945312 21.476562 19.019531 21.425781 19.085938 C 21.375 19.152344 21.308594 19.191406 21.222656 19.203125 C 21.140625 19.210938 21.066406 19.191406 21 19.140625 C 20.933594 19.089844 20.894531 19.023438 20.882812 18.941406 Z M 20.882812 18.941406 " fill-opacity="1" fill-rule="nonzero"/><path fill="#000080" d="M 24.847656 13.445312 L 25.429688 16.304688 C 25.570312 16.519531 25.808594 17.167969 26.140625 18.25 C 25.886719 17.148438 25.765625 16.46875 25.78125 16.210938 Z M 24.847656 13.445312 " fill-opacity="1" fill-rule="nonzero"/><path fill="#000080" d="M 20.882812 17.5625 C 20.894531 17.480469 20.933594 17.414062 21 17.359375 C 21.066406 17.308594 21.140625 17.289062 21.222656 17.300781 C 21.308594 17.3125 21.375 17.351562 21.425781 17.417969 C 21.476562 17.484375 21.496094 17.558594 21.488281 17.640625 C 21.476562 17.722656 21.4375 17.792969 21.371094 17.84375 C 21.304688 17.894531 21.226562 17.914062 21.144531 17.902344 C 21.0625 17.890625 20.992188 17.851562 20.941406 17.785156 C 20.890625 17.71875 20.871094 17.644531 20.882812 17.5625 Z M 20.882812 17.5625 " fill-opacity="1" fill-rule="nonzero"/><path fill="#000080" d="M 26.140625 13.277344 L 25.960938 16.1875 C 26.039062 16.429688 26.101562 17.117188 26.140625 18.25 C 26.183594 17.117188 26.242188 16.429688 26.324219 16.1875 Z M 26.140625 13.277344 " fill-opacity="1" fill-rule="nonzero"/><path fill="#000080" d="M 21.242188 16.230469 C 21.273438 16.152344 21.328125 16.097656 21.40625 16.066406 C 21.484375 16.035156 21.5625 16.035156 21.640625 16.066406 C 21.714844 16.097656 21.773438 16.152344 21.804688 16.230469 C 21.835938 16.308594 21.835938 16.386719 21.804688 16.464844 C 21.773438 16.539062 21.714844 16.59375 21.640625 16.628906 C 21.5625 16.660156 21.484375 16.660156 21.40625 16.628906 C 21.328125 16.59375 21.273438 16.539062 21.242188 16.464844 C 21.207031 16.386719 21.207031 16.308594 21.242188 16.230469 Z M 21.242188 16.230469 " fill-opacity="1" fill-rule="nonzero"/><path fill="#000080" d="M 27.4375 13.445312 L 26.503906 16.210938 C 26.515625 16.46875 26.398438 17.148438 26.140625 18.25 C 26.476562 17.167969 26.714844 16.519531 26.855469 16.304688 Z M 27.4375 13.445312 " fill-opacity="1" fill-rule="nonzero"/><path fill="#000080" d="M 21.933594 15.039062 C 21.984375 14.972656 22.050781 14.933594 22.136719 14.921875 C 22.21875 14.910156 22.292969 14.929688 22.359375 14.980469 C 22.425781 15.03125 22.464844 15.101562 22.476562 15.183594 C 22.488281 15.265625 22.46875 15.339844 22.417969 15.40625 C 22.367188 15.472656 22.296875 15.511719 22.214844 15.523438 C 22.132812 15.535156 22.054688 15.515625 21.988281 15.464844 C 21.921875 15.414062 21.882812 15.34375 21.871094 15.261719 C 21.863281 15.179688 21.882812 15.105469 21.933594 15.039062 Z M 21.933594 15.039062 " fill-opacity="1" fill-rule="nonzero"/><path fill="#000080" d="M 28.640625 13.941406 L 27.019531 16.375 C 26.96875 16.625 26.675781 17.25 26.140625 18.25 C 26.746094 17.289062 27.144531 16.726562 27.335938 16.554688 Z M 28.640625 13.941406 " fill-opacity="1" fill-rule="nonzero"/><path fill="#000080" d="M 22.914062 14.0625 C 22.980469 14.011719 23.054688 13.992188 23.136719 14.003906 C 23.222656 14.015625 23.289062 14.054688 23.339844 14.121094 C 23.390625 14.1875 23.410156 14.261719 23.398438 14.34375 C 23.390625 14.425781 23.351562 14.492188 23.285156 14.542969 C 23.21875 14.597656 23.140625 14.617188 23.058594 14.605469 C 22.976562 14.59375 22.90625 14.554688 22.855469 14.488281 C 22.804688 14.421875 22.785156 14.347656 22.796875 14.265625 C 22.808594 14.179688 22.84375 14.113281 22.914062 14.0625 Z M 22.914062 14.0625 " fill-opacity="1" fill-rule="nonzero"/><path fill="#000080" d="M 29.679688 14.734375 L 27.480469 16.664062 C 27.363281 16.894531 26.917969 17.421875 26.140625 18.25 C 26.976562 17.480469 27.507812 17.035156 27.738281 16.921875 Z M 29.679688 14.734375 " fill-opacity="1" fill-rule="nonzero"/><path fill="#000080" d="M 24.113281 13.375 C 24.191406 13.34375 24.265625 13.34375 24.34375 13.375 C 24.421875 13.40625 24.476562 13.460938 24.511719 13.539062 C 24.542969 13.617188 24.542969 13.695312 24.511719 13.769531 C 24.476562 13.847656 24.421875 13.902344 24.34375 13.933594 C 24.265625 13.96875 24.191406 13.96875 24.113281 13.933594 C 24.035156 13.902344 23.980469 13.847656 23.945312 13.769531 C 23.914062 13.695312 23.914062 13.617188 23.945312 13.539062 C 23.980469 13.460938 24.035156 13.40625 24.113281 13.375 Z M 24.113281 13.375 " fill-opacity="1" fill-rule="nonzero"/><path fill="#000080" d="M 30.472656 15.761719 L 27.847656 17.0625 C 27.675781 17.253906 27.109375 17.648438 26.140625 18.25 C 27.148438 17.71875 27.777344 17.429688 28.027344 17.378906 Z M 30.472656 15.761719 " fill-opacity="1" fill-rule="nonzero"/><path fill="#000080" d="M 25.449219 13.019531 C 25.53125 13.007812 25.609375 13.027344 25.675781 13.078125 C 25.742188 13.128906 25.78125 13.195312 25.792969 13.277344 C 25.800781 13.363281 25.78125 13.4375 25.730469 13.503906 C 25.679688 13.570312 25.613281 13.609375 25.527344 13.621094 C 25.445312 13.628906 25.371094 13.609375 25.304688 13.558594 C 25.238281 13.507812 25.199219 13.441406 25.1875 13.359375 C 25.175781 13.273438 25.195312 13.199219 25.246094 13.132812 C 25.296875 13.066406 25.367188 13.027344 25.449219 13.019531 Z M 25.449219 13.019531 " fill-opacity="1" fill-rule="nonzero"/><path fill="#000080" d="M 30.972656 16.964844 L 28.097656 17.542969 C 27.882812 17.683594 27.230469 17.917969 26.140625 18.25 C 27.253906 17.996094 27.933594 17.878906 28.191406 17.894531 Z M 30.972656 16.964844 " fill-opacity="1" fill-rule="nonzero"/><path fill="#000080" d="M 26.835938 13.019531 C 26.917969 13.027344 26.984375 13.066406 27.035156 13.132812 C 27.089844 13.199219 27.109375 13.273438 27.097656 13.359375 C 27.085938 13.441406 27.046875 13.507812 26.980469 13.558594 C 26.914062 13.609375 26.839844 13.628906 26.753906 13.621094 C 26.671875 13.609375 26.605469 13.570312 26.554688 13.503906 C 26.5 13.4375 26.480469 13.363281 26.492188 13.277344 C 26.503906 13.195312 26.542969 13.128906 26.609375 13.078125 C 26.675781 13.027344 26.75 13.007812 26.835938 13.019531 Z M 26.835938 13.019531 " fill-opacity="1" fill-rule="nonzero"/><path fill="#000080" d="M 31.144531 18.25 L 28.214844 18.070312 C 27.972656 18.148438 27.28125 18.210938 26.140625 18.25 C 27.28125 18.292969 27.972656 18.351562 28.214844 18.433594 Z M 31.144531 18.25 " fill-opacity="1" fill-rule="nonzero"/><path fill="#000080" d="M 28.171875 13.375 C 28.25 13.40625 28.304688 13.460938 28.335938 13.539062 C 28.371094 13.617188 28.371094 13.695312 28.335938 13.769531 C 28.304688 13.847656 28.25 13.902344 28.171875 13.933594 C 28.09375 13.96875 28.015625 13.96875 27.9375 13.933594 C 27.859375 13.902344 27.804688 13.847656 27.773438 13.769531 C 27.742188 13.695312 27.742188 13.617188 27.773438 13.539062 C 27.804688 13.460938 27.859375 13.40625 27.9375 13.375 C 28.015625 13.34375 28.09375 13.34375 28.171875 13.375 Z M 28.171875 13.375 " fill-opacity="1" fill-rule="nonzero"/><path fill="#000080" d="M 30.972656 19.539062 L 28.191406 18.609375 C 27.933594 18.625 27.253906 18.503906 26.140625 18.25 C 27.230469 18.582031 27.882812 18.820312 28.097656 18.960938 Z M 30.972656 19.539062 " fill-opacity="1" fill-rule="nonzero"/><path fill="#000080" d="M 29.371094 14.0625 C 29.4375 14.113281 29.476562 14.179688 29.488281 14.265625 C 29.5 14.347656 29.480469 14.421875 29.429688 14.488281 C 29.375 14.554688 29.308594 14.59375 29.226562 14.605469 C 29.140625 14.617188 29.066406 14.597656 29 14.542969 C 28.933594 14.492188 28.894531 14.425781 28.882812 14.34375 C 28.871094 14.261719 28.894531 14.1875 28.945312 14.121094 C 28.996094 14.054688 29.0625 14.015625 29.144531 14.003906 C 29.230469 13.992188 29.304688 14.011719 29.371094 14.0625 Z M 29.371094 14.0625 " fill-opacity="1" fill-rule="nonzero"/><path fill="#000080" d="M 30.472656 20.738281 L 28.027344 19.125 C 27.777344 19.074219 27.148438 18.78125 26.140625 18.25 C 27.109375 18.851562 27.675781 19.25 27.847656 19.441406 Z M 30.472656 20.738281 " fill-opacity="1" fill-rule="nonzero"/><path fill="#000080" d="M 30.351562 15.039062 C 30.402344 15.105469 30.421875 15.179688 30.410156 15.261719 C 30.402344 15.34375 30.363281 15.414062 30.292969 15.464844 C 30.226562 15.515625 30.152344 15.535156 30.070312 15.523438 C 29.984375 15.511719 29.917969 15.472656 29.867188 15.40625 C 29.816406 15.339844 29.796875 15.265625 29.808594 15.183594 C 29.816406 15.101562 29.855469 15.03125 29.921875 14.980469 C 29.992188 14.929688 30.066406 14.910156 30.148438 14.921875 C 30.234375 14.933594 30.300781 14.972656 30.351562 15.039062 Z M 30.351562 15.039062 " fill-opacity="1" fill-rule="nonzero"/><path fill="#000080" d="M 29.679688 21.769531 L 27.738281 19.582031 C 27.507812 19.464844 26.976562 19.023438 26.140625 18.25 C 26.917969 19.082031 27.363281 19.609375 27.480469 19.839844 Z M 29.679688 21.769531 " fill-opacity="1" fill-rule="nonzero"/><path fill="#000080" d="M 31.042969 16.230469 C 31.074219 16.308594 31.074219 16.386719 31.042969 16.464844 C 31.011719 16.539062 30.957031 16.59375 30.878906 16.628906 C 30.800781 16.660156 30.722656 16.660156 30.644531 16.628906 C 30.566406 16.59375 30.511719 16.539062 30.480469 16.464844 C 30.449219 16.386719 30.449219 16.308594 30.480469 16.230469 C 30.511719 16.152344 30.566406 16.097656 30.644531 16.066406 C 30.722656 16.035156 30.800781 16.035156 30.878906 16.066406 C 30.957031 16.097656 31.011719 16.152344 31.042969 16.230469 Z M 31.042969 16.230469 " fill-opacity="1" fill-rule="nonzero"/><path fill="#000080" d="M 28.640625 22.558594 L 27.335938 19.945312 C 27.144531 19.777344 26.746094 19.210938 26.140625 18.25 C 26.675781 19.253906 26.96875 19.878906 27.019531 20.128906 Z M 28.640625 22.558594 " fill-opacity="1" fill-rule="nonzero"/><path fill="#000080" d="M 31.402344 17.5625 C 31.414062 17.644531 31.394531 17.71875 31.339844 17.785156 C 31.289062 17.851562 31.222656 17.890625 31.140625 17.902344 C 31.054688 17.914062 30.980469 17.894531 30.914062 17.84375 C 30.847656 17.792969 30.808594 17.722656 30.796875 17.640625 C 30.785156 17.558594 30.808594 17.484375 30.859375 17.417969 C 30.910156 17.351562 30.976562 17.3125 31.058594 17.300781 C 31.144531 17.289062 31.21875 17.308594 31.285156 17.359375 C 31.351562 17.414062 31.390625 17.480469 31.402344 17.5625 Z M 31.402344 17.5625 " fill-opacity="1" fill-rule="nonzero"/><path fill="#000080" d="M 27.4375 23.058594 L 26.855469 20.195312 C 26.714844 19.984375 26.476562 19.335938 26.140625 18.25 C 26.398438 19.355469 26.515625 20.035156 26.503906 20.289062 Z M 27.4375 23.058594 " fill-opacity="1" fill-rule="nonzero"/><path fill="#000080" d="M 27.117188 18.25 C 27.117188 18.519531 27.023438 18.75 26.832031 18.9375 C 26.640625 19.128906 26.410156 19.222656 26.140625 19.222656 C 25.871094 19.222656 25.644531 19.128906 25.453125 18.9375 C 25.261719 18.75 25.167969 18.519531 25.167969 18.25 C 25.167969 17.984375 25.261719 17.753906 25.453125 17.566406 C 25.644531 17.375 25.871094 17.28125 26.140625 17.28125 C 26.410156 17.28125 26.640625 17.375 26.832031 17.566406 C 27.023438 17.753906 27.117188 17.984375 27.117188 18.25 Z M 27.117188 18.25 " fill-opacity="1" fill-rule="nonzero"/></svg>