<svg xmlns="http://www.w3.org/2000/svg" xmlns:xlink="http://www.w3.org/1999/xlink" width="1009" zoomAndPan="magnify" viewBox="0 0 756.75 151.500001" height="202" preserveAspectRatio="xMidYMid meet" version="1.0"><defs><clipPath id="fdd6912949"><path d="M 1.121094 0 L 755.378906 0 L 755.378906 151 L 1.121094 151 Z M 1.121094 0 " clip-rule="nonzero"/></clipPath></defs><g clip-path="url(#fdd6912949)"><path fill="#ffffff" d="M 1.121094 0 L 755.378906 0 L 755.378906 151 L 1.121094 151 Z M 1.121094 0 " fill-opacity="1" fill-rule="nonzero"/><path fill="#ffffff" d="M 1.121094 0 L 755.378906 0 L 755.378906 151 L 1.121094 151 Z M 1.121094 0 " fill-opacity="1" fill-rule="nonzero"/><path fill="#000000" d="M 1.121094 75.5 L 1.121094 151.003906 L 755.753906 150.628906 L 755.945312 75.3125 L 756.136719 0 L 1.121094 0 Z M 1.480469 75.875 C 1.480469 117.398438 1.570312 134.496094 1.679688 113.867188 C 1.792969 93.238281 1.792969 59.265625 1.679688 38.367188 C 1.570312 17.46875 1.480469 34.347656 1.480469 75.875 M 473.996094 3.765625 C 473.785156 4.367188 466.507812 30.421875 457.828125 61.667969 C 449.148438 92.914062 441.902344 118.621094 441.726562 118.796875 C 441.554688 118.972656 432.917969 117.898438 422.539062 116.410156 C 404.359375 113.804688 402.808594 113.445312 380.300781 106.648438 L 356.933594 99.589844 L 332.496094 106.609375 L 308.058594 113.625 L 291.949219 109.132812 C 283.089844 106.664062 275.164062 104.351562 274.34375 103.996094 C 273.519531 103.640625 264.773438 92.894531 254.90625 80.109375 C 245.039062 67.328125 236.757812 56.855469 236.5 56.839844 C 236.242188 56.824219 228.375 63.535156 219.019531 71.753906 C 205.351562 83.753906 200.640625 87.425781 195.054688 90.441406 C 191.230469 92.503906 187.390625 94.1875 186.527344 94.1875 C 185.664062 94.1875 178.324219 92.628906 170.21875 90.722656 L 155.484375 87.253906 L 135.273438 73.902344 C 124.152344 66.558594 114.789062 60.550781 114.460938 60.550781 C 114.128906 60.550781 92.277344 77.441406 65.902344 98.082031 C 5.363281 145.457031 3.9375 146.589844 4.359375 147.015625 C 4.628906 147.28125 107.714844 67.144531 113.285156 62.339844 C 114.28125 61.480469 117.183594 63.171875 134.214844 74.542969 L 153.992188 87.742188 L 186.992188 95.6875 L 194.894531 91.5625 C 201.773438 87.96875 204.933594 85.558594 219.394531 72.871094 C 228.527344 64.863281 236.117188 58.308594 236.269531 58.308594 C 236.417969 58.308594 244.636719 68.714844 254.53125 81.429688 C 269.039062 100.078125 272.988281 104.703125 274.925781 105.320312 C 279.507812 106.773438 307.136719 114.371094 307.929688 114.394531 C 308.371094 114.40625 319.570312 111.304688 332.816406 107.503906 L 356.90625 100.59375 L 379.910156 107.566406 C 402.230469 114.328125 403.511719 114.625 422.714844 117.398438 C 433.601562 118.972656 442.550781 120.195312 442.605469 120.117188 C 442.65625 120.042969 449.523438 95.421875 457.863281 65.410156 C 466.199219 35.394531 473.332031 9.738281 473.707031 8.390625 C 474.082031 7.042969 474.675781 6.121094 475.027344 6.335938 C 475.378906 6.554688 478.382812 11.375 481.703125 17.050781 C 486.496094 25.25 491.746094 36.808594 507.253906 73.300781 C 517.992188 98.5625 527.011719 119.484375 527.300781 119.789062 C 527.589844 120.097656 531.796875 113.457031 536.644531 105.027344 C 541.496094 96.601562 545.695312 89.5625 545.976562 89.386719 C 546.257812 89.214844 552.363281 99.949219 559.546875 113.242188 C 566.726562 126.539062 572.789062 137.109375 573.023438 136.734375 C 573.253906 136.363281 577.457031 123.273438 582.371094 107.652344 C 587.28125 92.027344 591.464844 79.246094 591.671875 79.246094 C 591.945312 79.25 619.003906 114.945312 627.230469 126.160156 C 627.847656 127 631.167969 119.488281 641.808594 93.164062 C 649.386719 74.417969 655.804688 59.074219 656.078125 59.066406 C 656.347656 59.058594 661.222656 65.59375 666.917969 73.585938 C 672.609375 81.574219 677.472656 87.882812 677.726562 87.601562 C 677.980469 87.320312 683.53125 76.75 690.058594 64.109375 C 696.589844 51.472656 702.128906 41.128906 702.367188 41.125 C 702.605469 41.117188 709.328125 59.085938 717.308594 81.054688 C 725.289062 103.019531 731.898438 120.910156 732.003906 120.804688 C 732.484375 120.324219 752.347656 27.367188 752.035156 27.054688 C 751.476562 26.496094 751.5 26.40625 741.917969 71.015625 C 731.183594 120.988281 732.171875 116.683594 731.523438 116.28125 C 731.234375 116.101562 724.640625 98.449219 716.867188 77.050781 C 709.09375 55.652344 702.507812 38.390625 702.230469 38.695312 C 701.953125 38.996094 696.429688 49.503906 689.957031 62.046875 C 683.484375 74.585938 677.941406 85.117188 677.640625 85.453125 C 677.339844 85.785156 672.421875 79.488281 666.714844 71.453125 C 661.003906 63.417969 656.148438 56.835938 655.921875 56.828125 C 655.699219 56.820312 650.5 69.175781 644.375 84.285156 C 638.25 99.394531 631.996094 114.742188 630.480469 118.390625 L 627.726562 125.023438 L 609.628906 100.953125 C 599.675781 87.71875 591.378906 77.039062 591.195312 77.222656 C 590.898438 77.519531 587.921875 86.808594 575.996094 124.660156 C 574.28125 130.113281 572.625 134.425781 572.324219 134.238281 C 572.023438 134.050781 566.078125 123.316406 559.109375 110.386719 C 552.144531 97.453125 546.242188 86.996094 545.988281 87.148438 C 545.738281 87.296875 541.566406 94.339844 536.714844 102.792969 C 531.863281 111.25 527.648438 117.90625 527.347656 117.578125 C 527.050781 117.253906 518.167969 96.628906 507.613281 71.742188 C 490.984375 32.542969 487.484375 24.90625 481.402344 14.585938 C 477.234375 7.507812 474.226562 3.117188 473.996094 3.765625 " fill-opacity="1" fill-rule="evenodd"/></g></svg>