<svg xmlns="http://www.w3.org/2000/svg" xmlns:xlink="http://www.w3.org/1999/xlink" width="70" zoomAndPan="magnify" viewBox="0 0 52.5 36.75" height="49" preserveAspectRatio="xMidYMid meet" version="1.0"><defs><clipPath id="5615005d8f"><path d="M 0 0.0507812 L 52 0.0507812 L 52 36.453125 L 0 36.453125 Z M 0 0.0507812 " clip-rule="nonzero"/></clipPath><clipPath id="b9198ab1ca"><path d="M 0 0.0507812 L 52 0.0507812 L 52 12 L 0 12 Z M 0 0.0507812 " clip-rule="nonzero"/></clipPath><clipPath id="72bbc43e6d"><path d="M 0 24 L 52 24 L 52 36.453125 L 0 36.453125 Z M 0 24 " clip-rule="nonzero"/></clipPath><clipPath id="6e8e1ce5eb"><path d="M 0 0.0507812 L 15 0.0507812 L 15 36.453125 L 0 36.453125 Z M 0 0.0507812 " clip-rule="nonzero"/></clipPath></defs><g clip-path="url(#5615005d8f)"><path fill="#fbfbfb" d="M 0.0234375 -0.664062 L 51.980469 -0.664062 L 51.980469 36.480469 L 0.0234375 36.480469 Z M 0.0234375 -0.664062 " fill-opacity="1" fill-rule="nonzero"/></g><g clip-path="url(#b9198ab1ca)"><path fill="#32ab45" d="M 0.0234375 -0.664062 L 51.980469 -0.664062 L 51.980469 11.40625 L 0.0234375 11.40625 Z M 0.0234375 -0.664062 " fill-opacity="1" fill-rule="nonzero"/></g><g clip-path="url(#72bbc43e6d)"><path fill="#1d1d1d" d="M 0.0234375 24.40625 L 51.980469 24.40625 L 51.980469 36.480469 L 0.0234375 36.480469 Z M 0.0234375 24.40625 " fill-opacity="1" fill-rule="nonzero"/></g><g clip-path="url(#6e8e1ce5eb)"><path fill="#e92b2b" d="M 0.0234375 -0.664062 L 14.867188 -0.664062 L 14.867188 36.480469 L 0.0234375 36.480469 Z M 0.0234375 -0.664062 " fill-opacity="1" fill-rule="nonzero"/></g></svg>