<svg xmlns="http://www.w3.org/2000/svg" xmlns:xlink="http://www.w3.org/1999/xlink" width="70" zoomAndPan="magnify" viewBox="0 0 52.5 36.75" height="49" preserveAspectRatio="xMidYMid meet" version="1.0"><defs><clipPath id="3e919e12f6"><path d="M 0 0.347656 L 51.941406 0.347656 L 51.941406 36.453125 L 0 36.453125 Z M 0 0.347656 " clip-rule="nonzero"/></clipPath><clipPath id="730e9990d9"><path d="M 0 22 L 51.941406 22 L 51.941406 26 L 0 26 Z M 0 22 " clip-rule="nonzero"/></clipPath><clipPath id="70fb158289"><path d="M 25 17 L 51.941406 17 L 51.941406 20 L 25 20 Z M 25 17 " clip-rule="nonzero"/></clipPath><clipPath id="db66f25752"><path d="M 25 11 L 51.941406 11 L 51.941406 15 L 25 15 Z M 25 11 " clip-rule="nonzero"/></clipPath><clipPath id="aaa803b813"><path d="M 25 5 L 51.941406 5 L 51.941406 9 L 25 9 Z M 25 5 " clip-rule="nonzero"/></clipPath><clipPath id="ff2284afba"><path d="M 25 0.347656 L 51.941406 0.347656 L 51.941406 4 L 25 4 Z M 25 0.347656 " clip-rule="nonzero"/></clipPath><clipPath id="64c7dd0dec"><path d="M 0 28 L 51.941406 28 L 51.941406 32 L 0 32 Z M 0 28 " clip-rule="nonzero"/></clipPath><clipPath id="32985e25cc"><path d="M 0 33 L 51.941406 33 L 51.941406 36.453125 L 0 36.453125 Z M 0 33 " clip-rule="nonzero"/></clipPath><clipPath id="0537f9390d"><path d="M 0 0.347656 L 26 0.347656 L 26 20 L 0 20 Z M 0 0.347656 " clip-rule="nonzero"/></clipPath></defs><g clip-path="url(#3e919e12f6)"><path fill="#ffffff" d="M 51.867188 36.753906 L -2.222656 36.753906 L -2.222656 0.351562 L 51.867188 0.351562 L 51.867188 36.753906 " fill-opacity="1" fill-rule="nonzero"/></g><g clip-path="url(#730e9990d9)"><path fill="#d21c31" d="M 51.867188 25.558594 L -2.222656 25.558594 L -2.222656 22.753906 L 51.867188 22.753906 L 51.867188 25.558594 " fill-opacity="1" fill-rule="nonzero"/></g><g clip-path="url(#70fb158289)"><path fill="#d21c31" d="M 51.867188 19.964844 L 25.179688 19.964844 L 25.179688 17.152344 L 51.867188 17.152344 L 51.867188 19.964844 " fill-opacity="1" fill-rule="nonzero"/></g><g clip-path="url(#db66f25752)"><path fill="#d21c31" d="M 51.867188 14.351562 L 25.179688 14.351562 L 25.179688 11.539062 L 51.867188 11.539062 L 51.867188 14.351562 " fill-opacity="1" fill-rule="nonzero"/></g><g clip-path="url(#aaa803b813)"><path fill="#d21c31" d="M 51.867188 8.761719 L 25.179688 8.761719 L 25.179688 5.949219 L 51.867188 5.949219 L 51.867188 8.761719 " fill-opacity="1" fill-rule="nonzero"/></g><g clip-path="url(#ff2284afba)"><path fill="#d21c31" d="M 51.867188 3.152344 L 25.183594 3.152344 L 25.183594 0.351562 L 51.867188 0.351562 L 51.867188 3.152344 " fill-opacity="1" fill-rule="nonzero"/></g><g clip-path="url(#64c7dd0dec)"><path fill="#d21c31" d="M 51.867188 31.15625 L -2.222656 31.15625 L -2.222656 28.355469 L 51.867188 28.355469 L 51.867188 31.15625 " fill-opacity="1" fill-rule="nonzero"/></g><g clip-path="url(#32985e25cc)"><path fill="#d21c31" d="M 51.867188 36.753906 L -2.222656 36.753906 L -2.222656 33.953125 L 51.867188 33.953125 L 51.867188 36.753906 " fill-opacity="1" fill-rule="nonzero"/></g><g clip-path="url(#0537f9390d)"><path fill="#363570" d="M 25.246094 19.96875 L -2.222656 19.96875 L -2.222656 0.351562 L 25.246094 0.351562 L 25.246094 19.96875 " fill-opacity="1" fill-rule="nonzero"/></g><path fill="#ffffff" d="M 0.125 1.132812 L 0.382812 1.929688 L 1.210938 1.929688 L 0.539062 2.421875 L 0.796875 3.21875 L 0.125 2.726562 L -0.546875 3.21875 L -0.289062 2.421875 L -0.960938 1.929688 L -0.132812 1.929688 L 0.125 1.132812 " fill-opacity="1" fill-rule="nonzero"/><path fill="#ffffff" d="M 4.664062 1.132812 L 4.921875 1.929688 L 5.75 1.929688 L 5.078125 2.421875 L 5.335938 3.21875 L 4.664062 2.726562 L 3.996094 3.21875 L 4.25 2.421875 L 3.578125 1.929688 L 4.410156 1.929688 L 4.664062 1.132812 " fill-opacity="1" fill-rule="nonzero"/><path fill="#ffffff" d="M 9.207031 1.132812 L 9.460938 1.929688 L 10.289062 1.929688 L 9.621094 2.421875 L 9.875 3.21875 L 9.207031 2.726562 L 8.535156 3.21875 L 8.789062 2.421875 L 8.121094 1.929688 L 8.949219 1.929688 L 9.207031 1.132812 " fill-opacity="1" fill-rule="nonzero"/><path fill="#ffffff" d="M 13.746094 1.132812 L 14 1.929688 L 14.832031 1.929688 L 14.160156 2.421875 L 14.417969 3.21875 L 13.746094 2.726562 L 13.074219 3.21875 L 13.332031 2.421875 L 12.660156 1.929688 L 13.488281 1.929688 L 13.746094 1.132812 " fill-opacity="1" fill-rule="nonzero"/><path fill="#ffffff" d="M 18.285156 1.132812 L 18.542969 1.929688 L 19.371094 1.929688 L 18.699219 2.421875 L 18.957031 3.21875 L 18.285156 2.726562 L 17.613281 3.21875 L 17.871094 2.421875 L 17.199219 1.929688 L 18.027344 1.929688 L 18.285156 1.132812 " fill-opacity="1" fill-rule="nonzero"/><path fill="#ffffff" d="M 22.824219 1.132812 L 23.082031 1.929688 L 23.910156 1.929688 L 23.238281 2.421875 L 23.496094 3.21875 L 22.824219 2.726562 L 22.15625 3.21875 L 22.410156 2.421875 L 21.738281 1.929688 L 22.570312 1.929688 L 22.824219 1.132812 " fill-opacity="1" fill-rule="nonzero"/><path fill="#ffffff" d="M 2.398438 3.089844 L 2.652344 3.886719 L 3.484375 3.886719 L 2.8125 4.378906 L 3.070312 5.175781 L 2.398438 4.683594 L 1.726562 5.175781 L 1.984375 4.378906 L 1.3125 3.886719 L 2.140625 3.886719 L 2.398438 3.089844 " fill-opacity="1" fill-rule="nonzero"/><path fill="#ffffff" d="M 6.9375 3.089844 L 7.195312 3.886719 L 8.023438 3.886719 L 7.351562 4.378906 L 7.609375 5.175781 L 6.9375 4.683594 L 6.265625 5.175781 L 6.523438 4.378906 L 5.851562 3.886719 L 6.683594 3.886719 L 6.9375 3.089844 " fill-opacity="1" fill-rule="nonzero"/><path fill="#ffffff" d="M 11.476562 3.089844 L 11.734375 3.886719 L 12.5625 3.886719 L 11.894531 4.378906 L 12.148438 5.175781 L 11.476562 4.683594 L 10.808594 5.175781 L 11.0625 4.378906 L 10.394531 3.886719 L 11.222656 3.886719 L 11.476562 3.089844 " fill-opacity="1" fill-rule="nonzero"/><path fill="#ffffff" d="M 16.019531 3.089844 L 16.273438 3.886719 L 17.105469 3.886719 L 16.433594 4.378906 L 16.6875 5.175781 L 16.019531 4.683594 L 15.347656 5.175781 L 15.605469 4.378906 L 14.933594 3.886719 L 15.761719 3.886719 L 16.019531 3.089844 " fill-opacity="1" fill-rule="nonzero"/><path fill="#ffffff" d="M 20.558594 3.089844 L 20.8125 3.886719 L 21.644531 3.886719 L 20.972656 4.378906 L 21.230469 5.175781 L 20.558594 4.683594 L 19.886719 5.175781 L 20.144531 4.378906 L 19.472656 3.886719 L 20.300781 3.886719 L 20.558594 3.089844 " fill-opacity="1" fill-rule="nonzero"/><path fill="#ffffff" d="M 2.398438 7.03125 L 2.652344 7.828125 L 3.484375 7.828125 L 2.8125 8.320312 L 3.070312 9.117188 L 2.398438 8.625 L 1.726562 9.117188 L 1.984375 8.320312 L 1.3125 7.828125 L 2.140625 7.828125 L 2.398438 7.03125 " fill-opacity="1" fill-rule="nonzero"/><path fill="#ffffff" d="M 6.9375 7.03125 L 7.195312 7.828125 L 8.023438 7.828125 L 7.351562 8.320312 L 7.609375 9.117188 L 6.9375 8.625 L 6.265625 9.117188 L 6.523438 8.320312 L 5.851562 7.828125 L 6.683594 7.828125 L 6.9375 7.03125 " fill-opacity="1" fill-rule="nonzero"/><path fill="#ffffff" d="M 11.476562 7.03125 L 11.734375 7.828125 L 12.5625 7.828125 L 11.894531 8.320312 L 12.148438 9.117188 L 11.476562 8.625 L 10.808594 9.117188 L 11.0625 8.320312 L 10.394531 7.828125 L 11.222656 7.828125 L 11.476562 7.03125 " fill-opacity="1" fill-rule="nonzero"/><path fill="#ffffff" d="M 16.019531 7.03125 L 16.273438 7.828125 L 17.105469 7.828125 L 16.433594 8.320312 L 16.6875 9.117188 L 16.019531 8.625 L 15.347656 9.117188 L 15.605469 8.320312 L 14.933594 7.828125 L 15.761719 7.828125 L 16.019531 7.03125 " fill-opacity="1" fill-rule="nonzero"/><path fill="#ffffff" d="M 20.558594 7.03125 L 20.8125 7.828125 L 21.644531 7.828125 L 20.972656 8.320312 L 21.230469 9.117188 L 20.558594 8.625 L 19.886719 9.117188 L 20.144531 8.320312 L 19.472656 7.828125 L 20.300781 7.828125 L 20.558594 7.03125 " fill-opacity="1" fill-rule="nonzero"/><path fill="#ffffff" d="M 2.398438 10.972656 L 2.652344 11.765625 L 3.484375 11.765625 L 2.8125 12.257812 L 3.070312 13.054688 L 2.398438 12.5625 L 1.726562 13.054688 L 1.984375 12.257812 L 1.3125 11.765625 L 2.140625 11.765625 L 2.398438 10.972656 " fill-opacity="1" fill-rule="nonzero"/><path fill="#ffffff" d="M 6.9375 10.972656 L 7.195312 11.765625 L 8.023438 11.765625 L 7.351562 12.257812 L 7.609375 13.054688 L 6.9375 12.5625 L 6.265625 13.054688 L 6.523438 12.257812 L 5.851562 11.765625 L 6.683594 11.765625 L 6.9375 10.972656 " fill-opacity="1" fill-rule="nonzero"/><path fill="#ffffff" d="M 11.476562 10.972656 L 11.734375 11.765625 L 12.5625 11.765625 L 11.894531 12.257812 L 12.148438 13.054688 L 11.476562 12.5625 L 10.808594 13.054688 L 11.0625 12.257812 L 10.394531 11.765625 L 11.222656 11.765625 L 11.476562 10.972656 " fill-opacity="1" fill-rule="nonzero"/><path fill="#ffffff" d="M 16.019531 10.972656 L 16.273438 11.765625 L 17.105469 11.765625 L 16.433594 12.257812 L 16.6875 13.054688 L 16.019531 12.5625 L 15.347656 13.054688 L 15.605469 12.257812 L 14.933594 11.765625 L 15.761719 11.765625 L 16.019531 10.972656 " fill-opacity="1" fill-rule="nonzero"/><path fill="#ffffff" d="M 20.558594 10.972656 L 20.8125 11.765625 L 21.644531 11.765625 L 20.972656 12.257812 L 21.230469 13.054688 L 20.558594 12.5625 L 19.886719 13.054688 L 20.144531 12.257812 L 19.472656 11.765625 L 20.300781 11.765625 L 20.558594 10.972656 " fill-opacity="1" fill-rule="nonzero"/><path fill="#ffffff" d="M 2.398438 14.910156 L 2.652344 15.707031 L 3.484375 15.707031 L 2.8125 16.199219 L 3.070312 16.996094 L 2.398438 16.503906 L 1.726562 16.996094 L 1.984375 16.199219 L 1.3125 15.707031 L 2.140625 15.707031 L 2.398438 14.910156 " fill-opacity="1" fill-rule="nonzero"/><path fill="#ffffff" d="M 6.9375 14.910156 L 7.195312 15.707031 L 8.023438 15.707031 L 7.351562 16.199219 L 7.609375 16.996094 L 6.9375 16.503906 L 6.265625 16.996094 L 6.523438 16.199219 L 5.851562 15.707031 L 6.683594 15.707031 L 6.9375 14.910156 " fill-opacity="1" fill-rule="nonzero"/><path fill="#ffffff" d="M 11.476562 14.910156 L 11.734375 15.707031 L 12.5625 15.707031 L 11.894531 16.199219 L 12.148438 16.996094 L 11.476562 16.503906 L 10.808594 16.996094 L 11.0625 16.199219 L 10.394531 15.707031 L 11.222656 15.707031 L 11.476562 14.910156 " fill-opacity="1" fill-rule="nonzero"/><path fill="#ffffff" d="M 16.019531 14.910156 L 16.273438 15.707031 L 17.105469 15.707031 L 16.433594 16.199219 L 16.6875 16.996094 L 16.019531 16.503906 L 15.347656 16.996094 L 15.605469 16.199219 L 14.933594 15.707031 L 15.761719 15.707031 L 16.019531 14.910156 " fill-opacity="1" fill-rule="nonzero"/><path fill="#ffffff" d="M 20.558594 14.910156 L 20.8125 15.707031 L 21.644531 15.707031 L 20.972656 16.199219 L 21.230469 16.996094 L 20.558594 16.503906 L 19.886719 16.996094 L 20.144531 16.199219 L 19.472656 15.707031 L 20.300781 15.707031 L 20.558594 14.910156 " fill-opacity="1" fill-rule="nonzero"/><path fill="#ffffff" d="M 0.125 5.066406 L 0.382812 5.863281 L 1.210938 5.863281 L 0.539062 6.351562 L 0.796875 7.148438 L 0.125 6.65625 L -0.546875 7.148438 L -0.289062 6.351562 L -0.960938 5.863281 L -0.132812 5.863281 L 0.125 5.066406 " fill-opacity="1" fill-rule="nonzero"/><path fill="#ffffff" d="M 4.664062 5.066406 L 4.921875 5.863281 L 5.75 5.863281 L 5.078125 6.351562 L 5.335938 7.148438 L 4.664062 6.65625 L 3.996094 7.148438 L 4.25 6.351562 L 3.578125 5.863281 L 4.410156 5.863281 L 4.664062 5.066406 " fill-opacity="1" fill-rule="nonzero"/><path fill="#ffffff" d="M 9.207031 5.066406 L 9.460938 5.863281 L 10.289062 5.863281 L 9.621094 6.351562 L 9.875 7.148438 L 9.207031 6.65625 L 8.535156 7.148438 L 8.789062 6.351562 L 8.121094 5.863281 L 8.949219 5.863281 L 9.207031 5.066406 " fill-opacity="1" fill-rule="nonzero"/><path fill="#ffffff" d="M 13.746094 5.066406 L 14 5.863281 L 14.832031 5.863281 L 14.160156 6.351562 L 14.417969 7.148438 L 13.746094 6.65625 L 13.074219 7.148438 L 13.332031 6.351562 L 12.660156 5.863281 L 13.488281 5.863281 L 13.746094 5.066406 " fill-opacity="1" fill-rule="nonzero"/><path fill="#ffffff" d="M 18.285156 5.066406 L 18.542969 5.863281 L 19.371094 5.863281 L 18.699219 6.351562 L 18.957031 7.148438 L 18.285156 6.65625 L 17.613281 7.148438 L 17.871094 6.351562 L 17.199219 5.863281 L 18.027344 5.863281 L 18.285156 5.066406 " fill-opacity="1" fill-rule="nonzero"/><path fill="#ffffff" d="M 22.824219 5.066406 L 23.082031 5.863281 L 23.910156 5.863281 L 23.238281 6.351562 L 23.496094 7.148438 L 22.824219 6.65625 L 22.15625 7.148438 L 22.410156 6.351562 L 21.738281 5.863281 L 22.570312 5.863281 L 22.824219 5.066406 " fill-opacity="1" fill-rule="nonzero"/><path fill="#ffffff" d="M 0.125 8.996094 L 0.382812 9.792969 L 1.210938 9.792969 L 0.539062 10.285156 L 0.796875 11.082031 L 0.125 10.589844 L -0.546875 11.082031 L -0.289062 10.285156 L -0.960938 9.792969 L -0.132812 9.792969 L 0.125 8.996094 " fill-opacity="1" fill-rule="nonzero"/><path fill="#ffffff" d="M 4.664062 8.996094 L 4.921875 9.792969 L 5.75 9.792969 L 5.078125 10.285156 L 5.335938 11.082031 L 4.664062 10.589844 L 3.996094 11.082031 L 4.25 10.285156 L 3.578125 9.792969 L 4.410156 9.792969 L 4.664062 8.996094 " fill-opacity="1" fill-rule="nonzero"/><path fill="#ffffff" d="M 9.207031 8.996094 L 9.460938 9.792969 L 10.289062 9.792969 L 9.621094 10.285156 L 9.875 11.082031 L 9.207031 10.589844 L 8.535156 11.082031 L 8.789062 10.285156 L 8.121094 9.792969 L 8.949219 9.792969 L 9.207031 8.996094 " fill-opacity="1" fill-rule="nonzero"/><path fill="#ffffff" d="M 13.746094 8.996094 L 14 9.792969 L 14.832031 9.792969 L 14.160156 10.285156 L 14.417969 11.082031 L 13.746094 10.589844 L 13.074219 11.082031 L 13.332031 10.285156 L 12.660156 9.792969 L 13.488281 9.792969 L 13.746094 8.996094 " fill-opacity="1" fill-rule="nonzero"/><path fill="#ffffff" d="M 18.285156 8.996094 L 18.542969 9.792969 L 19.371094 9.792969 L 18.699219 10.285156 L 18.957031 11.082031 L 18.285156 10.589844 L 17.613281 11.082031 L 17.871094 10.285156 L 17.199219 9.792969 L 18.027344 9.792969 L 18.285156 8.996094 " fill-opacity="1" fill-rule="nonzero"/><path fill="#ffffff" d="M 22.824219 8.996094 L 23.082031 9.792969 L 23.910156 9.792969 L 23.238281 10.285156 L 23.496094 11.082031 L 22.824219 10.589844 L 22.15625 11.082031 L 22.410156 10.285156 L 21.738281 9.792969 L 22.570312 9.792969 L 22.824219 8.996094 " fill-opacity="1" fill-rule="nonzero"/><path fill="#ffffff" d="M 0.125 12.929688 L 0.382812 13.726562 L 1.210938 13.726562 L 0.539062 14.21875 L 0.796875 15.015625 L 0.125 14.523438 L -0.546875 15.015625 L -0.289062 14.21875 L -0.960938 13.726562 L -0.132812 13.726562 L 0.125 12.929688 " fill-opacity="1" fill-rule="nonzero"/><path fill="#ffffff" d="M 4.664062 12.929688 L 4.921875 13.726562 L 5.75 13.726562 L 5.078125 14.21875 L 5.335938 15.015625 L 4.664062 14.523438 L 3.996094 15.015625 L 4.25 14.21875 L 3.578125 13.726562 L 4.410156 13.726562 L 4.664062 12.929688 " fill-opacity="1" fill-rule="nonzero"/><path fill="#ffffff" d="M 9.207031 12.929688 L 9.460938 13.726562 L 10.289062 13.726562 L 9.621094 14.21875 L 9.875 15.015625 L 9.207031 14.523438 L 8.535156 15.015625 L 8.789062 14.21875 L 8.121094 13.726562 L 8.949219 13.726562 L 9.207031 12.929688 " fill-opacity="1" fill-rule="nonzero"/><path fill="#ffffff" d="M 13.746094 12.929688 L 14 13.726562 L 14.832031 13.726562 L 14.160156 14.21875 L 14.417969 15.015625 L 13.746094 14.523438 L 13.074219 15.015625 L 13.332031 14.21875 L 12.660156 13.726562 L 13.488281 13.726562 L 13.746094 12.929688 " fill-opacity="1" fill-rule="nonzero"/><path fill="#ffffff" d="M 18.285156 12.929688 L 18.542969 13.726562 L 19.371094 13.726562 L 18.699219 14.21875 L 18.957031 15.015625 L 18.285156 14.523438 L 17.613281 15.015625 L 17.871094 14.21875 L 17.199219 13.726562 L 18.027344 13.726562 L 18.285156 12.929688 " fill-opacity="1" fill-rule="nonzero"/><path fill="#ffffff" d="M 22.824219 12.929688 L 23.082031 13.726562 L 23.910156 13.726562 L 23.238281 14.21875 L 23.496094 15.015625 L 22.824219 14.523438 L 22.15625 15.015625 L 22.410156 14.21875 L 21.738281 13.726562 L 22.570312 13.726562 L 22.824219 12.929688 " fill-opacity="1" fill-rule="nonzero"/><path fill="#ffffff" d="M 0.125 16.863281 L 0.382812 17.660156 L 1.210938 17.660156 L 0.539062 18.148438 L 0.796875 18.945312 L 0.125 18.453125 L -0.546875 18.945312 L -0.289062 18.148438 L -0.960938 17.660156 L -0.132812 17.660156 L 0.125 16.863281 " fill-opacity="1" fill-rule="nonzero"/><path fill="#ffffff" d="M 4.664062 16.863281 L 4.921875 17.660156 L 5.75 17.660156 L 5.078125 18.148438 L 5.335938 18.945312 L 4.664062 18.453125 L 3.996094 18.945312 L 4.25 18.148438 L 3.578125 17.660156 L 4.410156 17.660156 L 4.664062 16.863281 " fill-opacity="1" fill-rule="nonzero"/><path fill="#ffffff" d="M 9.207031 16.863281 L 9.460938 17.660156 L 10.289062 17.660156 L 9.621094 18.148438 L 9.875 18.945312 L 9.207031 18.453125 L 8.535156 18.945312 L 8.789062 18.148438 L 8.121094 17.660156 L 8.949219 17.660156 L 9.207031 16.863281 " fill-opacity="1" fill-rule="nonzero"/><path fill="#ffffff" d="M 13.746094 16.863281 L 14 17.660156 L 14.832031 17.660156 L 14.160156 18.148438 L 14.417969 18.945312 L 13.746094 18.453125 L 13.074219 18.945312 L 13.332031 18.148438 L 12.660156 17.660156 L 13.488281 17.660156 L 13.746094 16.863281 " fill-opacity="1" fill-rule="nonzero"/><path fill="#ffffff" d="M 18.285156 16.863281 L 18.542969 17.660156 L 19.371094 17.660156 L 18.699219 18.148438 L 18.957031 18.945312 L 18.285156 18.453125 L 17.613281 18.945312 L 17.871094 18.148438 L 17.199219 17.660156 L 18.027344 17.660156 L 18.285156 16.863281 " fill-opacity="1" fill-rule="nonzero"/><path fill="#ffffff" d="M 22.824219 16.863281 L 23.082031 17.660156 L 23.910156 17.660156 L 23.238281 18.148438 L 23.496094 18.945312 L 22.824219 18.453125 L 22.15625 18.945312 L 22.410156 18.148438 L 21.738281 17.660156 L 22.570312 17.660156 L 22.824219 16.863281 " fill-opacity="1" fill-rule="nonzero"/></svg>